<?xml version="1.0" encoding="UTF-8" standalone="no"?>
<!DOCTYPE svg PUBLIC "-//W3C//DTD SVG 1.1//EN" "http://www.w3.org/Graphics/SVG/1.1/DTD/svg11.dtd">
<svg width="100%" height="100%" viewBox="0 0 6400 1200" version="1.1" xmlns="http://www.w3.org/2000/svg" xmlns:xlink="http://www.w3.org/1999/xlink" xml:space="preserve" xmlns:serif="http://www.serif.com/" style="fill-rule:evenodd;clip-rule:evenodd;stroke-linecap:round;stroke-linejoin:round;stroke-miterlimit:2;">
    <g id="Logo">
        <g id="Color">
            <path d="M150,150L150,1050L250,1050L250,400L600,750L1050,300L1050,150L600,600L150,150Z" style="fill:rgb(0,220,250);"/>
            <path d="M1050,450L1050,1050L950,1050L950,700L600,1050L350,800L350,650L600,900L1050,450Z" style="fill:rgb(0,100,200);"/>
        </g>
        <g id="Gradients-v2" serif:id="Gradients v2">
            <path d="M150,1050L250,400L250,1050L150,1050Z" style="fill:url(#_Linear1);"/>
            <path d="M150,150L150,1050L250,400L600,750L150,150Z" style="fill:url(#_Linear2);"/>
            <path d="M1050,300L600,750L150,150L600,600L1050,300Z" style="fill:url(#_Linear3);"/>
            <path d="M1050,150L600,600L1050,300L1050,150Z" style="fill:url(#_Linear4);"/>
            <path d="M350,650L350,800L600,900L350,650Z" style="fill:url(#_Linear5);"/>
            <path d="M350,800L600,1050L1050,450L600,900L350,800Z" style="fill:url(#_Linear6);"/>
            <path d="M1050,450L600,1050L950,700L1050,1050L1050,450Z" style="fill:url(#_Linear7);"/>
            <path d="M950,700L950,1050L1050,1050L950,700Z" style="fill:url(#_Linear8);"/>
        </g>
    </g>
    <g id="Logotype">
        <g id="Black">
            <path d="M1900.83,355.26L1900.83,844.74L1879.29,844.74L1879.29,380.713L1648.26,853.877L1418.53,380.713L1418.53,844.74L1398.95,844.74L1398.95,355.26L1430.28,355.26L1650.21,806.887L1870.81,355.26L1900.83,355.26Z" style="fill-rule:nonzero;stroke:black;stroke-width:10.58px;"/>
            <path d="M2281.97,551.052L2281.97,844.74L2261.08,844.74L2261.08,771.644C2248.9,796.444 2230.63,816.023 2206.26,830.382C2181.9,844.74 2155.79,851.919 2127.95,851.919C2085.31,851.919 2048.76,836.799 2018.3,806.56C1987.85,776.321 1972.62,740.1 1972.62,697.896C1972.62,655.692 1987.85,619.47 2018.3,589.231C2048.76,558.993 2085.31,543.873 2127.95,543.873C2155.79,543.873 2182.44,551.27 2207.89,566.063C2233.35,580.856 2251.08,600.435 2261.08,624.8L2261.08,551.052L2281.97,551.052ZM1993.5,698.548C1993.5,735.096 2006.88,766.749 2033.64,793.507C2060.4,820.266 2092.16,833.645 2128.93,833.645C2165.69,833.645 2197.12,820.266 2223.23,793.507C2249.34,766.749 2262.39,734.987 2262.39,698.222C2262.39,661.457 2249.23,629.586 2222.91,602.611C2196.58,575.635 2165.15,562.147 2128.6,562.147C2092.05,562.147 2060.4,575.744 2033.64,602.937C2006.88,630.13 1993.5,662.001 1993.5,698.548Z" style="fill-rule:nonzero;stroke:black;stroke-width:10.58px;"/>
            <path d="M2531.93,590.863C2512.78,571.719 2491.68,562.147 2468.62,562.147C2445.56,562.147 2425.22,570.849 2407.6,588.252C2389.98,605.656 2381.17,625.888 2381.17,648.948L2381.17,844.74L2360.28,844.74L2360.28,551.052L2381.17,551.052L2381.17,594.779C2389,579.986 2401.18,567.803 2417.72,558.231C2434.25,548.659 2452.74,543.873 2473.19,543.873C2493.64,543.873 2513.22,550.835 2531.93,564.758L2531.93,590.863Z" style="fill-rule:nonzero;stroke:black;stroke-width:10.58px;"/>
            <path d="M2729.68,853.224L2723.8,853.224C2682.04,853.224 2646.14,837.778 2616.12,806.887C2586.1,775.995 2571.09,739.773 2571.09,698.222C2571.09,656.671 2586.32,620.776 2616.77,590.537C2647.23,560.298 2684.65,545.178 2729.03,545.178C2773.41,545.178 2811.26,561.929 2842.59,595.432L2842.59,628.716C2829.1,608.702 2812.02,592.821 2791.35,581.073C2770.69,569.326 2749.04,563.452 2726.41,563.452C2690.3,563.452 2658.87,576.831 2632.11,603.59C2605.35,630.348 2591.97,662.218 2591.97,699.201C2591.97,736.184 2605.35,768.055 2632.11,794.813C2658.87,821.571 2690.3,834.95 2726.41,834.95C2749.04,834.95 2770.69,829.076 2791.35,817.329C2812.02,805.581 2829.1,789.483 2842.59,769.033L2842.59,802.971C2812.13,836.473 2774.49,853.224 2729.68,853.224Z" style="fill-rule:nonzero;stroke:black;stroke-width:10.58px;"/>
            <path d="M2918.94,844.74L2898.06,844.74L2898.06,355.913L2918.94,355.913L2918.94,607.832C2940.7,565.193 2978.33,543.873 3031.85,543.873C3068.4,543.873 3099.18,556.491 3124.2,581.726C3149.22,606.961 3161.73,637.636 3161.73,673.748L3161.73,844.74L3140.84,844.74L3140.84,673.748C3140.84,643.292 3130.18,617.077 3108.86,595.105C3087.54,573.133 3061.87,562.147 3031.85,562.147C3001.83,562.147 2975.51,573.242 2952.88,595.432C2930.26,617.621 2918.94,643.727 2918.94,673.748L2918.94,844.74Z" style="fill-rule:nonzero;stroke:black;stroke-width:10.58px;"/>
            <path d="M3380.36,852.571L3374.49,852.571C3333.15,852.571 3297.15,837.017 3266.47,805.908C3235.8,774.798 3220.46,738.577 3220.46,697.243C3220.46,655.909 3235.69,620.123 3266.15,589.884C3296.6,559.645 3334.24,544.526 3379.05,544.526C3423.87,544.526 3462.38,562.364 3494.57,598.042L3289.64,800.36C3317.92,822.985 3345.12,834.297 3371.22,834.297C3397.33,834.297 3420.71,828.315 3441.38,816.35C3462.05,804.385 3479.13,788.395 3492.61,768.381L3492.61,801.665C3461.72,835.603 3424.3,852.571 3380.36,852.571ZM3373.51,562.8C3338.92,562.8 3308.24,576.179 3281.49,602.937C3254.73,629.695 3241.35,660.478 3241.35,695.285C3241.35,730.093 3252.88,760.549 3275.94,786.655L3465.86,598.042C3438.88,574.547 3408.1,562.8 3373.51,562.8Z" style="fill-rule:nonzero;stroke:black;stroke-width:10.58px;"/>
            <path d="M3533.73,551.052L3555.27,551.052L3676.01,807.539L3732.78,688.106L3669.48,552.357L3690.36,552.357L3743.23,667.874L3797.4,551.052L3816.97,551.052L3753.02,688.106L3809.14,808.844L3928.58,551.705L3947.5,551.705L3808.49,851.919L3741.92,708.991L3674.7,851.919L3533.73,551.052Z" style="fill-rule:nonzero;stroke:black;stroke-width:10.58px;"/>
            <path d="M4145.25,853.224L4139.38,853.224C4097.61,853.224 4061.72,837.778 4031.69,806.887C4001.67,775.995 3986.66,739.773 3986.66,698.222C3986.66,656.671 4001.89,620.776 4032.35,590.537C4062.8,560.298 4100.22,545.178 4144.6,545.178C4188.98,545.178 4226.83,561.929 4258.16,595.432L4258.16,628.716C4244.67,608.702 4227.59,592.821 4206.93,581.073C4186.26,569.326 4164.61,563.452 4141.99,563.452C4105.88,563.452 4074.44,576.831 4047.68,603.59C4020.93,630.348 4007.55,662.218 4007.55,699.201C4007.55,736.184 4020.93,768.055 4047.68,794.813C4074.44,821.571 4105.88,834.95 4141.99,834.95C4164.61,834.95 4186.26,829.076 4206.93,817.329C4227.59,805.581 4244.67,789.483 4258.16,769.033L4258.16,802.971C4227.7,836.473 4190.07,853.224 4145.25,853.224Z" style="fill-rule:nonzero;stroke:black;stroke-width:10.58px;"/>
            <path d="M4493.11,826.466L4493.11,844.74L4290.79,844.74L4457.87,569.326L4308.41,569.326L4308.41,551.052L4495.07,551.052L4327.34,826.466L4493.11,826.466Z" style="fill-rule:nonzero;stroke:black;stroke-width:10.58px;"/>
            <path d="M4786.8,551.052L4807.68,551.052L4807.68,835.603C4807.68,874.326 4794.19,907.175 4767.22,934.151C4740.24,961.127 4707.17,974.615 4668.02,974.615C4621.03,974.615 4583.83,956.558 4556.41,920.446L4557.72,887.814C4569.9,908.698 4585.89,925.34 4605.69,937.741C4625.49,950.141 4646.26,956.341 4668.02,956.341C4700.21,956.341 4728.06,944.702 4751.55,921.425C4775.05,898.147 4786.8,870.192 4786.8,837.561L4786.8,787.96C4765.48,830.599 4728.28,851.919 4675.19,851.919C4639.08,851.919 4608.19,839.192 4582.52,813.739C4556.85,788.286 4544.02,757.721 4544.02,722.043L4544.02,551.052L4564.9,551.052L4564.9,722.043C4564.9,752.065 4575.89,778.17 4597.86,800.36C4619.83,822.55 4645.83,833.645 4675.85,833.645C4705.87,833.645 4731.87,822.55 4753.84,800.36C4775.81,778.17 4786.8,752.065 4786.8,722.043L4786.8,551.052Z" style="fill-rule:nonzero;stroke:black;stroke-width:10.58px;"/>
            <path d="M4879.47,356.566L4900.36,356.566L4900.36,652.864L5016.53,551.052L5043.28,551.052L4908.84,668.527L5077.22,844.74L5049.16,844.74L4900.36,690.064L4900.36,844.74L4879.47,844.74L4879.47,356.566Z" style="fill-rule:nonzero;stroke:black;stroke-width:10.58px;"/>
        </g>
    </g>
    <g id="Domain" opacity="0.5">
        <g id="Black1" serif:id="Black">
            <path d="M5195.36,849.308C5180.35,849.308 5172.84,842.564 5172.84,829.076C5172.84,815.588 5180.35,808.844 5195.36,808.844C5210.37,808.844 5217.87,815.588 5217.87,829.076C5217.87,842.564 5210.37,849.308 5195.36,849.308Z" style="fill-rule:nonzero;stroke:black;stroke-width:10.58px;"/>
            <path d="M5391.48,832.339L5391.48,850.613C5360.59,850.613 5334.26,840.28 5312.51,819.613C5290.75,798.946 5279.88,772.514 5279.88,740.317L5279.88,355.26L5300.76,355.26L5300.76,740.317C5300.76,766.858 5309.57,788.83 5327.19,806.234C5344.81,823.638 5366.24,832.339 5391.48,832.339Z" style="fill-rule:nonzero;stroke:black;stroke-width:10.58px;"/>
            <path d="M5473.06,551.705L5473.06,844.74L5452.17,844.74L5452.17,551.705L5473.06,551.705ZM5462.61,479.914C5450,479.914 5443.69,474.041 5443.69,462.293C5443.69,450.546 5450,444.672 5462.61,444.672C5475.23,444.672 5481.54,450.546 5481.54,462.293C5481.54,474.041 5475.23,479.914 5462.61,479.914Z" style="fill-rule:nonzero;stroke:black;stroke-width:10.58px;"/>
            <path d="M5580.74,844.74L5559.86,844.74L5559.86,551.052L5580.74,551.052L5580.74,610.442C5602.93,566.063 5640.78,543.873 5694.3,543.873C5730.85,543.873 5761.52,556.491 5786.32,581.726C5811.12,606.961 5823.52,637.636 5823.52,673.748L5823.52,844.74L5802.64,844.74L5802.64,673.748C5802.64,643.727 5792.09,617.621 5770.99,595.432C5749.88,573.242 5724.32,562.147 5694.3,562.147C5664.28,562.147 5637.85,573.242 5615.01,595.432C5592.16,617.621 5580.74,643.727 5580.74,673.748L5580.74,844.74Z" style="fill-rule:nonzero;stroke:black;stroke-width:10.58px;"/>
            <path d="M5901.84,356.566L5922.72,356.566L5922.72,652.864L6038.89,551.052L6065.65,551.052L5931.21,668.527L6099.59,844.74L6071.53,844.74L5922.72,690.064L5922.72,844.74L5901.84,844.74L5901.84,356.566Z" style="fill-rule:nonzero;stroke:black;stroke-width:10.58px;"/>
        </g>
    </g>
    <defs>
        <linearGradient id="_Linear1" x1="0" y1="0" x2="1" y2="0" gradientUnits="userSpaceOnUse" gradientTransform="matrix(3.9801e-14,-650,650,3.9801e-14,250,1050)"><stop offset="0" style="stop-color:rgb(0,220,250);stop-opacity:1"/><stop offset="1" style="stop-color:rgb(0,193,226);stop-opacity:1"/></linearGradient>
        <linearGradient id="_Linear2" x1="0" y1="0" x2="1" y2="0" gradientUnits="userSpaceOnUse" gradientTransform="matrix(-100,-750,1500,-200,250,900)"><stop offset="0" style="stop-color:rgb(0,189,225);stop-opacity:1"/><stop offset="1" style="stop-color:rgb(0,154,197);stop-opacity:1"/></linearGradient>
        <linearGradient id="_Linear3" x1="0" y1="0" x2="1" y2="0" gradientUnits="userSpaceOnUse" gradientTransform="matrix(200,-300,300,200,600,750)"><stop offset="0" style="stop-color:rgb(0,190,226);stop-opacity:1"/><stop offset="1" style="stop-color:rgb(0,207,236);stop-opacity:1"/></linearGradient>
        <linearGradient id="_Linear4" x1="0" y1="0" x2="1" y2="0" gradientUnits="userSpaceOnUse" gradientTransform="matrix(-450,300,-300,-450,1050,150)"><stop offset="0" style="stop-color:rgb(54,240,251);stop-opacity:1"/><stop offset="1" style="stop-color:rgb(16,232,251);stop-opacity:1"/></linearGradient>
        <linearGradient id="_Linear5" x1="0" y1="0" x2="1" y2="0" gradientUnits="userSpaceOnUse" gradientTransform="matrix(250,250,-250,250,350,650)"><stop offset="0" style="stop-color:rgb(35,145,216);stop-opacity:1"/><stop offset="1" style="stop-color:rgb(26,121,192);stop-opacity:1"/></linearGradient>
        <linearGradient id="_Linear6" x1="0" y1="0" x2="1" y2="0" gradientUnits="userSpaceOnUse" gradientTransform="matrix(150,-450,450,150,600,1050)"><stop offset="0" style="stop-color:rgb(0,67,171);stop-opacity:1"/><stop offset="1" style="stop-color:rgb(0,100,200);stop-opacity:1"/></linearGradient>
        <linearGradient id="_Linear7" x1="0" y1="0" x2="1" y2="0" gradientUnits="userSpaceOnUse" gradientTransform="matrix(-300,500,-500,-300,1050,450)"><stop offset="0" style="stop-color:rgb(0,40,129);stop-opacity:1"/><stop offset="1" style="stop-color:rgb(0,63,166);stop-opacity:1"/></linearGradient>
        <linearGradient id="_Linear8" x1="0" y1="0" x2="1" y2="0" gradientUnits="userSpaceOnUse" gradientTransform="matrix(-1.34e-13,-350,350,-1.34e-13,950,1050)"><stop offset="0" style="stop-color:rgb(0,100,200);stop-opacity:1"/><stop offset="1" style="stop-color:rgb(0,73,171);stop-opacity:1"/></linearGradient>
    </defs>
</svg>
